<svg width="0" height="0" class="hidden"><symbol fill="none" xmlns="http://www.w3.org/2000/svg" viewBox="0 0 55 66" id="css"><g clip-path="url(#clip0)"><path d="M3.965 11.902l4.31 48.688L27.634 66l19.35-5.407 4.318-48.691H3.965z" fill="#006BC0"/><path d="M42.084 27.823l-.544 6.117-1.644 18.336-12.263 3.391-.01.004-12.257-3.395-.855-9.589h6.005l.446 4.974 6.664 1.798.004-.003 6.674-1.799.91-8.287-20.99.058-.596-5.667 22.09-.26.446-6.066-23.127.064-.39-5.643h29.971l-.534 5.967z" fill="#F2F2F2"/></g><path d="M16.664 6.405V2.25h5.559V0h-7.574v8.656h7.574v-2.25h-5.56zm8.686-3.018v-1.04h5.529V0h-7.574v5.366h5.428v1.04h-5.428v2.25h7.574v-5.27h-5.53zm8.947 0v-1.04h6.32V0H31.96v5.366h6.204v1.04H31.96v2.25h8.656v-5.27h-6.32z" fill="#000"/><defs><clipPath id="clip0"><path fill="#fff" transform="translate(.584 11.902)" d="M0 0h54.098v54.098H0z"/></clipPath></defs></symbol><symbol fill="none" xmlns="http://www.w3.org/2000/svg" viewBox="0 0 55 66" id="html"><g clip-path="url(#clip0)"><path d="M3.666 11.902L7.977 60.59 27.334 66l19.35-5.407 4.319-48.691H3.665z" fill="#E64C18"/><path d="M41.654 27.823H18.965l.541 6.117h21.606l-1.627 18.34-12.152 3.39-.01.004-12.145-3.395-.848-9.592h5.95l.443 4.977 6.604 1.795.006-.003 6.61-1.795.69-7.747H14.087l-1.603-18.058h29.697l-.527 5.967z" fill="#F2F2F2"/></g><path d="M13.7 0v3.02h-3.026V0H7.86v8.656h2.815V5.838H13.7v2.818h2.815V0H13.7zm12.552 0h-8.655v2.996h2.814v5.66h3.027v-5.66h2.814V0zm16.086 5.904V0h-3.102v8.656h7.574V5.904h-4.472zM34.967 0l-2.223 3.086L30.521 0h-3.187v8.656h3.187V4.36l2.223 3.087 2.223-3.087v4.295h3.187V0h-3.187z" fill="#000"/><defs><clipPath id="clip0"><path fill="#fff" transform="translate(.285 11.902)" d="M0 0h54.098v54.098H0z"/></clipPath></defs></symbol><symbol fill="none" xmlns="http://www.w3.org/2000/svg" viewBox="0 0 44 80" id="java"><g fill="#DE0A17"><path d="M41.514 63.086h-.302v-.168h.812v.168h-.3v.842h-.21v-.842zm1.618.044h-.005l-.298.798h-.137l-.297-.798h-.003v.798h-.199v-1.01h.292l.275.715.275-.715h.29v1.01h-.193v-.798zM14.533 42.436s-2.097 1.22 1.493 1.633c4.348.495 6.57.424 11.362-.483 0 0 1.26.79 3.02 1.475-10.743 4.603-24.312-.267-15.875-2.625zm-1.312-6.007s-2.352 1.74 1.24 2.112c4.645.48 8.313.519 14.66-.704 0 0 .878.89 2.259 1.377-12.988 3.798-27.454.3-18.16-2.785zm11.065-10.192c2.647 3.047-.695 5.79-.695 5.79s6.72-3.47 3.634-7.815c-2.883-4.051-5.093-6.064 6.874-13.005 0 0-18.785 4.692-9.813 15.03z"/><path d="M38.493 46.88s1.552 1.279-1.709 2.268c-6.2 1.878-25.806 2.445-31.253.075-1.958-.852 1.714-2.034 2.869-2.282 1.204-.261 1.893-.213 1.893-.213-2.178-1.534-14.074 3.012-6.043 4.314 21.901 3.552 39.924-1.6 34.243-4.162zM15.541 30.204s-9.973 2.369-3.531 3.229c2.72.364 8.141.282 13.191-.142 4.128-.348 8.272-1.088 8.272-1.088s-1.455.623-2.508 1.342c-10.128 2.664-29.692 1.425-24.06-1.3 4.763-2.302 8.636-2.041 8.636-2.041zm17.89 10c10.296-5.35 5.536-10.49 2.214-9.798-.815.17-1.178.316-1.178.316s.302-.473.88-.678c6.573-2.311 11.627 6.815-2.122 10.43 0 0 .16-.143.207-.27zM27.225 0s5.702 5.703-5.408 14.474c-8.908 7.035-2.03 11.046-.003 15.63-5.2-4.692-9.016-8.822-6.456-12.666C19.116 11.795 29.526 9.06 27.225 0z"/><path d="M16.553 54.7c9.882.633 25.057-.35 25.416-5.027 0 0-.69 1.773-8.167 3.18-8.434 1.588-18.837 1.403-25.007.385 0 0 1.263 1.046 7.758 1.462zm-1.62 17.867c-.932.808-1.916 1.262-2.8 1.262-1.261 0-1.942-.756-1.942-1.969 0-1.312.73-2.271 3.659-2.271h1.083v2.978zm2.573 2.902v-8.984c0-2.295-1.31-3.809-4.465-3.809-1.843 0-3.456.455-4.768 1.035l.379 1.59c1.032-.379 2.37-.732 3.681-.732 1.818 0 2.6.732 2.6 2.246v1.135h-.907c-4.417 0-6.41 1.715-6.41 4.288 0 2.221 1.314 3.484 3.786 3.484 1.59 0 2.775-.656 3.884-1.616l.202 1.363h2.018zm8.584 0h-3.208l-3.86-12.566h2.8l2.397 7.72.532 2.323c1.212-3.357 2.07-6.763 2.498-10.043h2.726c-.73 4.138-2.045 8.68-3.885 12.566zm12.308-2.902c-.934.808-1.92 1.262-2.804 1.262-1.26 0-1.942-.756-1.942-1.969 0-1.312.731-2.271 3.66-2.271h1.086v2.978zm2.572 2.902v-8.984c0-2.295-1.313-3.809-4.465-3.809-1.844 0-3.458.455-4.77 1.035l.379 1.59c1.033-.379 2.373-.732 3.684-.732 1.816 0 2.6.732 2.6 2.246v1.135h-.91c-4.418 0-6.41 1.715-6.41 4.288 0 2.221 1.313 3.484 3.785 3.484 1.59 0 2.776-.656 3.886-1.616l.203 1.363h2.018zM4.796 77.603C4.063 78.673 2.878 79.52 1.582 80l-1.27-1.495c.987-.506 1.833-1.324 2.226-2.086.34-.677.481-1.55.481-3.639V58.435h2.733v14.149c0 2.791-.223 3.92-.956 5.019z"/></g></symbol><symbol fill="none" xmlns="http://www.w3.org/2000/svg" viewBox="0 0 70 66" id="js"><path d="M52.21 29.537c-1.071-3.108-5.465-3.108-6.322-.536-.857 2.572 2.036 4.072 6.537 5.572 4.5 1.5 7.287 5.465 6.751 9.002-.436 2.874-2.036 8.144-10.93 8.144-5.56 0-8.649-3.475-10.184-6.08l5.04-3.029s1.714 3.644 4.93 3.644c3.214 0 4.5-1.072 4.5-3.537 0-3-10.395-4.072-12.002-9.215-1.608-5.144.536-12.431 8.037-11.896 4.688.335 7.325 2.638 8.644 4.317l-5 3.614zm-23.36-7.394v20.575c0 2.464-2.144 3.75-4.287 3.321-2.143-.428-3.108-3-3.108-3l-4.93 3.322s1.072 4.93 7.824 5.358c6.75.429 10.608-3.643 10.608-7.073V22.143H28.85z" fill="#E4BA42"/><path fill-rule="evenodd" clip-rule="evenodd" d="M64.46 4.84H8.14v56.32h56.32V4.84zM4.4 1.1v63.8h63.8V1.1H4.4z" fill="#E4BA42"/><path d="M6.612 51.612a6.108 6.108 0 100-12.216 6.108 6.108 0 000 12.216z" fill="#000"/></symbol><symbol fill="none" xmlns="http://www.w3.org/2000/svg" viewBox="0 0 67 66" id="python"><g clip-path="url(#clip0)"><path d="M32.934 0C16.09 0 17.143 7.304 17.143 7.304l.018 7.567h16.073v2.272H10.778S0 15.92 0 32.915c0 16.994 9.407 16.392 9.407 16.392h5.614V41.42s-.303-9.407 9.257-9.407h15.94s8.957.145 8.957-8.655V8.806S50.535 0 32.934 0zM24.07 5.088c1.6 0 2.892 1.293 2.892 2.892s-1.292 2.89-2.892 2.89a2.889 2.889 0 01-2.89-2.89c0-1.6 1.292-2.892 2.891-2.892z" fill="#3876AC"/><path d="M33.412 66c16.843 0 15.79-7.304 15.79-7.304l-.018-7.567H33.112v-2.272h22.456s10.778 1.223 10.778-15.772c0-16.994-9.407-16.391-9.407-16.391h-5.615v7.886s.303 9.407-9.256 9.407H26.127s-8.957-.145-8.957 8.655v14.552S15.81 66 33.412 66zm8.862-5.088a2.889 2.889 0 01-2.891-2.892 2.888 2.888 0 012.891-2.891c1.6 0 2.892 1.292 2.892 2.891a2.89 2.89 0 01-2.892 2.892z" fill="#F7CD00"/></g><defs><clipPath id="clip0"><path fill="#fff" d="M0 0h66.346v66H0z"/></clipPath></defs></symbol></svg>