<svg width="55" height="66" fill="none" xmlns="http://www.w3.org/2000/svg"><g id="Group 75"><g id="css-3" clip-path="url(#clip0)"><path id="Vector" d="M3.965 11.902l4.31 48.688L27.634 66l19.35-5.407 4.318-48.691H3.965z" fill="#006BC0"/><path id="Vector_2" d="M42.084 27.823l-.544 6.117-1.644 18.336-12.263 3.391-.01.004-12.257-3.395-.855-9.589h6.005l.446 4.974 6.664 1.798.004-.003 6.674-1.799.91-8.287-20.99.058-.596-5.667 22.09-.26.446-6.066-23.127.064-.39-5.643h29.971l-.534 5.967z" fill="#F2F2F2"/></g><g id="Group 74" fill="#000"><path id="Vector_3" d="M16.664 6.405V2.25h5.559V0h-7.574v8.656h7.574v-2.25h-5.56z"/><path id="Vector_4" d="M25.35 3.387v-1.04h5.529V0h-7.574v5.366h5.428v1.04h-5.428v2.25h7.574v-5.27h-5.53z"/><path id="Vector_5" d="M34.297 3.387v-1.04h6.32V0H31.96v5.366h6.204v1.04H31.96v2.25h8.656v-5.27h-6.32z"/></g></g><defs><clipPath id="clip0"><path fill="#fff" transform="translate(.584 11.902)" d="M0 0h54.098v54.098H0z"/></clipPath></defs></svg>