<svg width="55" height="66" fill="none" xmlns="http://www.w3.org/2000/svg"><g id="Group 77"><g id="html-5" clip-path="url(#clip0)"><path id="Vector" d="M3.666 11.902L7.977 60.59 27.334 66l19.35-5.407 4.319-48.691H3.665z" fill="#E64C18"/><path id="Vector_2" d="M41.654 27.823H18.965l.541 6.117h21.606l-1.627 18.34-12.152 3.39-.01.004-12.145-3.395-.848-9.592h5.95l.443 4.977 6.604 1.795.006-.003 6.61-1.795.69-7.747H14.087l-1.603-18.058h29.697l-.527 5.967z" fill="#F2F2F2"/></g><g id="Group 76" fill="#000"><path id="Vector_3" d="M13.7 0v3.02h-3.026V0H7.86v8.656h2.815V5.838H13.7v2.818h2.815V0H13.7z"/><path id="Vector_4" d="M26.252 0h-8.655v2.996h2.814v5.66h3.027v-5.66h2.814V0z"/><path id="Vector_5" d="M42.338 5.904V0h-3.102v8.656h7.574V5.904h-4.472z"/><path id="Vector_6" d="M34.967 0l-2.223 3.086L30.521 0h-3.187v8.656h3.187V4.36l2.223 3.087 2.223-3.087v4.295h3.187V0h-3.187z"/></g></g><defs><clipPath id="clip0"><path fill="#fff" transform="translate(.285 11.902)" d="M0 0h54.098v54.098H0z"/></clipPath></defs></svg>