<svg width="44" height="80" fill="none" xmlns="http://www.w3.org/2000/svg"><g id="Group 78" fill="#DE0A17"><path id="Vector" d="M41.514 63.086h-.302v-.168h.812v.168h-.3v.842h-.21v-.842zm1.618.044h-.005l-.298.798h-.137l-.297-.798h-.003v.798h-.199v-1.01h.292l.275.715.275-.715h.29v1.01h-.193v-.798zM14.533 42.436s-2.097 1.22 1.493 1.633c4.348.495 6.57.424 11.362-.483 0 0 1.26.79 3.02 1.475-10.743 4.603-24.312-.267-15.875-2.625zm-1.312-6.007s-2.352 1.74 1.24 2.112c4.645.48 8.313.519 14.66-.704 0 0 .878.89 2.259 1.377-12.988 3.798-27.454.3-18.16-2.785z"/><path id="Vector_2" d="M24.286 26.237c2.647 3.047-.695 5.79-.695 5.79s6.72-3.47 3.634-7.815c-2.883-4.051-5.093-6.064 6.874-13.005 0 0-18.785 4.692-9.813 15.03z"/><path id="Vector_3" d="M38.493 46.88s1.552 1.279-1.709 2.268c-6.2 1.878-25.806 2.445-31.253.075-1.958-.852 1.714-2.034 2.869-2.282 1.204-.261 1.893-.213 1.893-.213-2.178-1.534-14.074 3.012-6.043 4.314 21.901 3.552 39.924-1.6 34.243-4.162zM15.541 30.204s-9.973 2.369-3.531 3.229c2.72.364 8.141.282 13.191-.142 4.128-.348 8.272-1.088 8.272-1.088s-1.455.623-2.508 1.342c-10.128 2.664-29.692 1.425-24.06-1.3 4.763-2.302 8.636-2.041 8.636-2.041zm17.89 10c10.296-5.35 5.536-10.49 2.214-9.798-.815.17-1.178.316-1.178.316s.302-.473.88-.678c6.573-2.311 11.627 6.815-2.122 10.43 0 0 .16-.143.207-.27z"/><path id="Vector_4" d="M27.225 0s5.702 5.703-5.408 14.474c-8.908 7.035-2.03 11.046-.003 15.63-5.2-4.692-9.016-8.822-6.456-12.666C19.116 11.795 29.526 9.06 27.225 0z"/><path id="Vector_5" d="M16.553 54.7c9.882.633 25.057-.35 25.416-5.027 0 0-.69 1.773-8.167 3.18-8.434 1.588-18.837 1.403-25.007.385 0 0 1.263 1.046 7.758 1.462zm-1.62 17.867c-.932.808-1.916 1.262-2.8 1.262-1.261 0-1.942-.756-1.942-1.969 0-1.312.73-2.271 3.659-2.271h1.083v2.978zm2.573 2.902v-8.984c0-2.295-1.31-3.809-4.465-3.809-1.843 0-3.456.455-4.768 1.035l.379 1.59c1.032-.379 2.37-.732 3.681-.732 1.818 0 2.6.732 2.6 2.246v1.135h-.907c-4.417 0-6.41 1.715-6.41 4.288 0 2.221 1.314 3.484 3.786 3.484 1.59 0 2.775-.656 3.884-1.616l.202 1.363h2.018zm8.584 0h-3.208l-3.86-12.566h2.8l2.397 7.72.532 2.323c1.212-3.357 2.07-6.763 2.498-10.043h2.726c-.73 4.138-2.045 8.68-3.885 12.566zm12.308-2.902c-.934.808-1.92 1.262-2.804 1.262-1.26 0-1.942-.756-1.942-1.969 0-1.312.731-2.271 3.66-2.271h1.086v2.978zm2.572 2.902v-8.984c0-2.295-1.313-3.809-4.465-3.809-1.844 0-3.458.455-4.77 1.035l.379 1.59c1.033-.379 2.373-.732 3.684-.732 1.816 0 2.6.732 2.6 2.246v1.135h-.91c-4.418 0-6.41 1.715-6.41 4.288 0 2.221 1.313 3.484 3.785 3.484 1.59 0 2.776-.656 3.886-1.616l.203 1.363h2.018zM4.796 77.603C4.063 78.673 2.878 79.52 1.582 80l-1.27-1.495c.987-.506 1.833-1.324 2.226-2.086.34-.677.481-1.55.481-3.639V58.435h2.733v14.149c0 2.791-.223 3.92-.956 5.019z"/></g></svg>