<svg width="70" height="66" fill="none" xmlns="http://www.w3.org/2000/svg"><g id="javascript 1"><g id="Group" fill="#E4BA42"><path id="Vector" d="M52.21 29.537c-1.071-3.108-5.465-3.108-6.322-.536-.857 2.572 2.036 4.072 6.537 5.572 4.5 1.5 7.287 5.465 6.751 9.002-.436 2.874-2.036 8.144-10.93 8.144-5.56 0-8.649-3.475-10.184-6.08l5.04-3.029s1.714 3.644 4.93 3.644c3.214 0 4.5-1.072 4.5-3.537 0-3-10.395-4.072-12.002-9.215-1.608-5.144.536-12.431 8.037-11.896 4.688.335 7.325 2.638 8.644 4.317l-5 3.614z"/><path id="Vector_2" d="M28.85 22.143v20.575c0 2.464-2.144 3.75-4.287 3.321-2.143-.428-3.108-3-3.108-3l-4.93 3.322s1.072 4.93 7.824 5.358c6.75.429 10.608-3.643 10.608-7.073V22.143H28.85z"/></g><path id="Rectangle 14 (Stroke)" fill-rule="evenodd" clip-rule="evenodd" d="M64.46 4.84H8.14v56.32h56.32V4.84zM4.4 1.1v63.8h63.8V1.1H4.4z" fill="#E4BA42"/><path id="Vector_3" d="M6.612 51.612a6.108 6.108 0 100-12.216 6.108 6.108 0 000 12.216z" fill="#000"/></g></svg>