<svg width="67" height="66" fill="none" xmlns="http://www.w3.org/2000/svg"><g id="Python-logo-notext 1" clip-path="url(#clip0)"><g id="layer1"><g id="g1894"><path id="path8615" d="M32.934 0C16.09 0 17.143 7.304 17.143 7.304l.018 7.567h16.073v2.272H10.778S0 15.92 0 32.915c0 16.994 9.407 16.392 9.407 16.392h5.614V41.42s-.303-9.407 9.257-9.407h15.94s8.957.145 8.957-8.655V8.806S50.535 0 32.934 0zM24.07 5.088c1.6 0 2.892 1.293 2.892 2.892s-1.292 2.89-2.892 2.89a2.889 2.889 0 01-2.89-2.89c0-1.6 1.292-2.892 2.891-2.892z" fill="#3876AC"/><path id="path8620" d="M33.412 66c16.843 0 15.79-7.304 15.79-7.304l-.018-7.567H33.112v-2.272h22.456s10.778 1.223 10.778-15.772c0-16.994-9.407-16.391-9.407-16.391h-5.615v7.886s.303 9.407-9.256 9.407H26.127s-8.957-.145-8.957 8.655v14.552S15.81 66 33.412 66zm8.862-5.088a2.889 2.889 0 01-2.891-2.892 2.888 2.888 0 012.891-2.891c1.6 0 2.892 1.292 2.892 2.891a2.89 2.89 0 01-2.892 2.892z" fill="#F7CD00"/></g></g></g><defs><clipPath id="clip0"><path fill="#fff" d="M0 0h66.346v66H0z"/></clipPath></defs></svg>