<svg width="131" height="40" fill="none" xmlns="http://www.w3.org/2000/svg"><path d="M44.474 15.013c-2.668 0-4.68 2.14-4.68 4.981 0 2.842 2.033 4.982 4.728 4.982 2.667 0 4.68-2.14 4.68-4.982 0-2.841-2.033-4.98-4.728-4.98zM57.995.203H0V40h57.995l13.696-19.856L57.995.203zm-27.67 26.092l-.134.116c-2.166 1.857-4.672 2.798-7.45 2.798-2.627 0-4.997-.928-6.672-2.614-1.66-1.672-2.576-4.017-2.576-6.6 0-2.483.93-4.793 2.62-6.505 1.716-1.747 4.059-2.709 6.608-2.709 2.874 0 4.861.705 6.872 2.433l.286.247-2.826 3.442-.293-.247c-1.233-1.04-2.31-1.643-4.166-1.643-2.46 0-4.462 2.235-4.462 4.981 0 2.916 1.988 5.03 4.727 5.03 1.206 0 2.278-.29 3.114-.842v-1.851h-3.734v-4.016h8.086v7.98zm20.861.208c-1.74 1.745-4.124 2.706-6.712 2.706-2.589 0-4.968-.954-6.69-2.688-1.696-1.707-2.63-4.022-2.63-6.527a9.183 9.183 0 01.679-3.525 9.094 9.094 0 011.976-2.983c1.74-1.745 4.123-2.702 6.713-2.702s4.967.955 6.689 2.688c1.696 1.708 2.63 4.022 2.63 6.527a9.181 9.181 0 01-.68 3.523 9.09 9.09 0 01-1.975 2.981z" fill="#000"/><path d="M13.851 20.027c0-4.769 3.67-8.675 8.688-8.675 2.982 0 4.781.815 6.51 2.3l-2.297 2.804c-1.278-1.078-2.414-1.701-4.332-1.701-2.65 0-4.758 2.372-4.758 5.272 0 3.067 2.083 5.32 5.019 5.32 1.325 0 2.509-.335 3.432-1.007v-2.396h-3.669v-3.19h7.196v7.284c-1.704 1.462-4.048 2.66-7.078 2.66-5.16 0-8.71-3.666-8.71-8.671zm21.981.117c0-4.769 3.72-8.675 8.83-8.675 5.11 0 8.782 3.858 8.782 8.675 0 4.769-3.72 8.675-8.83 8.675-5.11 0-8.782-3.858-8.782-8.675zm13.8 0c0-2.875-2.083-5.272-5.018-5.272-2.935 0-4.971 2.349-4.971 5.272 0 2.876 2.083 5.272 5.018 5.272 2.936 0 4.971-2.348 4.971-5.272z" fill="#fff" stroke="#fff" stroke-miterlimit="10"/><path d="M131 0H73.076v39.797H131V0z" fill="#FF6C00"/><path d="M90.922 11.928h3.646v16.775h-3.646V11.928zm14.43 3.402h-5.042v-3.402h13.729v3.403h-5.042v13.372h-3.645V15.33z" fill="#fff" stroke="#fff" stroke-miterlimit="10"/></svg>