<svg version="1.0" xmlns="http://www.w3.org/2000/svg" width="2794.667" height="2794.667" viewBox="0 0 2096 2096"><path d="M1169.2 1046.4v318.4H2096V728h-926.8v318.4zM0 1049.6V1368l464.1-.2 464.2-.3 8.8-12.8c4.9-7.1 8.9-13.2 8.9-13.7 0-.4.4-1 .8-1.2.8-.3 12.3-16.4 14.7-20.6.6-.9 1.2-1.9 1.5-2.2.3-.3 2.8-3.9 5.5-8 2.8-4.1 5.6-8.1 6.3-8.8.6-.8 1.7-2.3 2.3-3.5.7-1.1 1.6-2.6 2.1-3.1 1-1.2 10.4-14.8 24.2-35.1 4.9-7.2 9.3-13.2 9.8-13.3.4-.2.8-.8.8-1.4 0-.5 2.8-4.9 6.3-9.8 3.4-4.9 12.3-17.7 19.7-28.5 7.4-10.8 14.1-20.3 14.8-21 .6-.8 1.2-1.7 1.2-2 0-.4.8-1.7 1.8-3 .9-1.2 2.4-3.3 3.2-4.5.8-1.2 3-4.2 4.8-6.6 1.7-2.3 3.2-4.7 3.2-5.3 0-.5.3-1.1.8-1.3.4-.2 1.6-1.7 2.8-3.3 7.3-10.6 15.1-22 16.4-24 .8-1.3 3.3-4.9 5.6-8.2 2.2-3.2 5.5-8.1 7.4-10.8 1.9-2.8 3.6-5.2 3.9-5.5.4-.3 1.1-1.3 1.6-2.2.6-.9 3-4.5 5.4-8 2.4-3.5 6.2-9 8.5-12.3 2.2-3.3 4.4-6.5 4.8-7 .5-.6 1.9-2.6 3.2-4.5 1.2-1.9 5.7-8.4 9.9-14.4 8.6-12.5 8.6-10.7.3-22.3-7.6-10.6-19-27.1-20.2-29.3-.6-1.1-1.8-2.8-2.7-3.8-1-1-1.7-2.3-1.7-2.9 0-.6-.4-1.3-.8-1.5-.4-.2-3.8-4.8-7.6-10.3-3.7-5.5-10.3-15.2-14.7-21.5-4.4-6.3-9.6-14-11.6-17-1.9-3-4-5.7-4.4-5.8-.5-.2-.9-.9-.9-1.6 0-.7-.8-2.1-1.7-3.2-1-1-5.6-7.5-10.2-14.4-4.7-6.9-8.8-12.7-9.3-12.8-.4-.2-.8-.9-.8-1.5 0-.7-1.4-2.8-3-4.7-1.6-1.9-3-4-3-4.7 0-.6-.3-1.3-.7-1.5-.5-.2-3.7-4.6-7.2-9.8-3.6-5.2-7.8-11.2-9.4-13.3-1.6-2-2.5-3.7-2-3.7.4 0 .3-.4-.3-.8s-5.8-7.7-11.7-16.2c-5.8-8.5-11.1-16-11.6-16.7-.6-.7-1.1-1.6-1.1-2.2 0-.5-.4-1.1-.8-1.3-.4-.2-3.6-4.6-7.2-9.8-3.5-5.2-9-13.3-12.3-18-3.2-4.7-7.7-11.3-10-14.8-2.2-3.4-4.4-6.2-4.9-6.2-.4 0-.8-.6-.8-1.3 0-.7-.9-2.3-2-3.5-1.1-1.2-2-2.4-2-2.8 0-.3-2.6-4.3-5.8-8.7-3.1-4.5-7.3-10.5-9.2-13.2-1.9-2.8-3.8-5.2-4.2-5.3-.4-.2-.8-.8-.8-1.3 0-.9-3.6-6.5-5-7.9-.3-.3-.9-1.3-1.5-2.2-.5-.9-2.7-4.1-4.7-7.1l-3.8-5.5H0v318.4zM365.5 901c-.6 1-8.5 1.1-8.5.2 0-.4 2-.8 4.5-.8 2.4-.1 4.3.2 4 .6zm13.3-.1c1.7.1 3.2.5 3.2 1.1 0 .5-1 .8-2.2.6-1.3-.3-4.7-.5-7.5-.5-2.9-.1-5.3-.5-5.3-.9s1.9-.7 4.3-.6c2.3.2 5.7.3 7.5.3zm350.2.5c5.2.5 21.1 3.5 26.5 5 5.1 1.4 12.1 3.8 15.2 5.1 2.1 1 4.9 2.2 6.3 2.7 1.4.6 3.2 1.4 4 1.9.8.4 3.4 1.8 5.8 3 6.2 3.1 16.7 10.4 24.2 16.8 3.6 3 6.7 5.6 6.9 5.8.2.2.2.5 0 .8-.3.2-2.5-1.4-5-3.6-6.4-6-21-15.4-31.5-20.5-5-2.4-9.4-4.4-9.9-4.4-.4 0-2.1-.7-3.8-1.4-2.8-1.3-10.2-3.5-17.2-5.1-6.4-1.5-14.9-2.8-19.7-2.9-2.1-.1-3.8-.3-3.8-.6 0-1.3-31.6 0-37 1.5-.8.2-3.2.6-5.3.9-6.2 1-16.9 3.8-21.4 5.7-2.4 1-4.3 1.6-4.3 1.3 0-.2-1.5.3-3.2 1.3-1.8.9-3.5 1.8-3.8 1.8-3.6.7-25.6 13.6-29.7 17.4-1.2 1.2-2.4 2.1-2.7 2.1-.7 0-9.5 8-13.5 12.4-2 2.2-4.6 4.8-5.8 5.9-1.3 1.2-2.3 2.4-2.3 2.9s-.9 1.9-2.1 3.1c-5.9 6.4-17.4 26.9-21.4 38.2-.9 2.7-2 5.7-2.3 6.5-.3.8-.6 1.9-.7 2.5-.2.5-1 3.8-1.9 7.3-.9 3.4-1.4 6.7-1.1 7.2.3.6.2 1-.3 1s-.9.6-.9 1.2c-.1.7-.4 4.7-.9 8.8-1.3 13.2-.6 41.2 1.1 44 .2.4.7 2 .9 3.6.3 1.6.8 3.9 1.1 5.1.3 1.3.7 3.3 1 4.4.2 1.2 1 3.8 1.7 5.8s1.3 3.8 1.3 4.1c.1.3.7 1.8 1.3 3.3.7 1.6 1.2 3 1.2 3.3 0 1.3 7.3 15.9 8.1 16.2.5.2.9.9.9 1.6 0 1.5 8.7 14.3 14.1 20.8 2.1 2.6 3.9 4.9 3.9 5.3 0 .5-4.8-4.7-7.5-8.3-.5-.7-1.5-1.8-2.1-2.5-5-5.8-18.4-28.4-18.4-31 0-.4-.9-2.6-1.9-5-1.8-3.9-4.2-10.8-4.7-13.2-.1-.6-.7-2.8-1.3-5.1-2.9-10.8-4.4-22.9-4.5-36.4 0-10.6 1.1-24.1 2.3-28.9.6-2 1.2-4.9 1.5-6.4.3-1.5 1.2-5.2 2.1-8.2.8-3 1.6-5.7 1.6-6 0-.5 3.1-7.7 7.1-16.5 6.1-13.3 16.3-27.5 28.8-39.9 8.4-8.3 23.5-20.1 25.9-20.1.6 0 1.1-.4 1.1-.8 0-.9 16.1-8.8 24.8-12.1 2.8-1.2 5.2-1.8 5.2-1.5 0 .4.6.2 1.3-.4.7-.6 2.4-1.3 3.7-1.6 1.4-.2 3.2-.7 4-1 .8-.3 3.2-.8 5.4-1.1 2.1-.3 4.2-.8 4.6-1 1-.6 8-1.5 18.5-2.4 8.8-.7 18.5-.6 28.5.3zm-373.5.1c-2.5.9-10.4 1.2-9.9.4.3-.5 2.9-.9 5.7-.8 2.9 0 4.8.2 4.2.4zm39 1.1c2.8.3 5.8.8 6.8 1 .9.2 2.7.6 4 .9 6.7 1.4 12.3 2.8 13.2 3.4.6.3 1.5.6 2 .7 4.9.7 29.6 12.6 30.3 14.5.2.5.8.9 1.4.9.9 0 13.1 8.3 15.4 10.5.6.5 3.1 2.8 5.7 4.9 3.5 2.9 4.4 4.2 3.6 5.2-.8 1-1.4.9-2.8-.4-20.1-19.4-46.8-33.5-72.6-38.6-11.1-2.2-12.6-2.4-15.7-2.5-1.6-.1-2.8-.5-2.8-1 0-.9 1.1-.9 11.5.5zm-54.5-.2c0 .2-.7.7-1.6 1-.8.3-1.2.2-.9-.4.6-1 2.5-1.4 2.5-.6zm3.7.2c-.3.3-1.2.4-1.9.1-.8-.3-.5-.6.6-.6 1.1-.1 1.7.2 1.3.5zM820.5 944c.3.5.1 1-.4 1-.6 0-1.1-.5-1.1-1 0-.6.2-1 .4-1 .3 0 .8.4 1.1 1zm3.9 4.9c-.2.3-1.2-.3-2.2-1.3-1.6-1.7-1.6-1.8.5-.5 1.2.7 2 1.5 1.7 1.8zm-339.3 73.3c0 .7 0 29.4.1 63.7v62.4l-3.9 3.6c-4.5 4.2-5.3 4.7-19.2 14.1-5.7 3.9-10.9 7-11.7 7-.8 0-1.4.4-1.4.9 0 .7-2.8 1.9-4.7 1.9-.3 0-.9.4-1.2.9-1.4 2.1-32.9 13.9-34 12.7-.6-.6-.7-.6 10-4.1 10.3-3.4 23.7-9.4 28-12.4 1.4-1 2.8-1.6 3.1-1.3.3.2 1.1-.2 1.8-1.1.7-.8 1.6-1.5 2.1-1.5 1.5 0 19.7-13.3 26.3-19.2 1.9-1.7 1.9-3.8 1.9-64.5 0-34.6.1-63.1.4-63.6.7-1.2 2.3-.8 2.4.5zm128 137.5c1.3 1.6 1.2 1.7-.3.4-1-.7-1.8-1.5-1.8-1.7 0-.8.8-.3 2.1 1.3zM407 1189.9c-.8.5-3.3 1.2-5.5 1.5l-4 .6 4.5-1.4c5.3-1.7 7.1-1.9 5-.7zm-10 2.1c0 .5-.5 1-1.1 1-.5 0-.7-.5-.4-1 .3-.6.8-1 1.1-1 .2 0 .4.4.4 1zm-12 2c0 .5-.2 1-.4 1-.3 0-.8-.5-1.1-1-.3-.6-.1-1 .4-1 .6 0 1.1.4 1.1 1z"/></svg>