<svg width="0" height="0" class="hidden"><symbol xmlns="http://www.w3.org/2000/svg" viewBox="0 0 32 32" id="fbook"><path d="M19 6h5V0h-5c-3.86 0-7 3.14-7 7v3H8v6h4v16h6V16h5l1-6h-6V7c0-.542.458-1 1-1z"/></symbol><symbol xmlns="http://www.w3.org/2000/svg" viewBox="0 0 16 16" id="insta"><path d="M11 0H5a5 5 0 00-5 5v6a5 5 0 005 5h6a5 5 0 005-5V5a5 5 0 00-5-5zm3.5 11c0 1.93-1.57 3.5-3.5 3.5H5c-1.93 0-3.5-1.57-3.5-3.5V5c0-1.93 1.57-3.5 3.5-3.5h6c1.93 0 3.5 1.57 3.5 3.5v6z"/><path d="M8 4a4 4 0 100 8 4 4 0 000-8zm0 6.5A2.503 2.503 0 015.5 8c0-1.379 1.122-2.5 2.5-2.5s2.5 1.121 2.5 2.5c0 1.378-1.122 2.5-2.5 2.5zm4.3-6.267a.533.533 0 100-1.066.533.533 0 000 1.066z"/></symbol><symbol xmlns="http://www.w3.org/2000/svg" viewBox="0 0 18 18" id="telegram"><path d="M17.722 1.788a1.17 1.17 0 00-.927-.417c-.206 0-.424.043-.648.129L.912 7.316c-.809.309-.918.772-.91 1.02.006.25.141.705.966.968l.015.004 2.137.612 10.406-5.317a.527.527 0 01.624.83v.001l-5.786 6.148-.165.669 2.066 1.664 2.864 2.305a.15.15 0 00.007.006c.315.245.66.374.995.374.657 0 1.18-.486 1.332-1.238L17.96 3.035c.1-.495.016-.938-.237-1.247z"/><path d="M7.373 11.195a.525.525 0 01.127-.235l3.797-4.034-7.045 3.6 1.6 4.574c.09.26.226.483.394.657l1.126-4.562zm-.145 4.985c.38-.003.754-.163 1.081-.465l1.17-1.078-1.56-1.256-.69 2.8z"/></symbol><symbol xmlns="http://www.w3.org/2000/svg" viewBox="0 0 22 22" id="ytube"><path d="M21.065 4.895c-.597-1.061-1.244-1.257-2.563-1.331-1.317-.09-4.63-.127-7.5-.127-2.874 0-6.188.038-7.504.126-1.316.075-1.965.27-2.567 1.332C.316 5.955 0 7.781 0 10.995v.012c0 3.2.316 5.04.93 6.09.603 1.061 1.25 1.254 2.567 1.343 1.317.077 4.63.122 7.506.122 2.87 0 6.182-.045 7.5-.12 1.319-.09 1.967-.282 2.563-1.344.62-1.049.934-2.889.934-6.09v-.011c0-3.216-.314-5.042-.935-6.102z"/><path d="M8.25 15.125v-8.25L15.125 11 8.25 15.125z" fill="#121D2E"/></symbol></svg>