<svg width="16" height="16" fill="none" xmlns="http://www.w3.org/2000/svg"><g id="instagram 1"><g id="Group"><g id="Group_2"><path id="Vector" d="M11 0H5a5 5 0 00-5 5v6a5 5 0 005 5h6a5 5 0 005-5V5a5 5 0 00-5-5zm3.5 11c0 1.93-1.57 3.5-3.5 3.5H5c-1.93 0-3.5-1.57-3.5-3.5V5c0-1.93 1.57-3.5 3.5-3.5h6c1.93 0 3.5 1.57 3.5 3.5v6z" fill="#fff"/></g></g><g id="Group_3"><g id="Group_4"><path id="Vector_2" d="M8 4a4 4 0 100 8 4 4 0 000-8zm0 6.5A2.503 2.503 0 015.5 8c0-1.379 1.122-2.5 2.5-2.5s2.5 1.121 2.5 2.5c0 1.378-1.122 2.5-2.5 2.5z" fill="#fff"/></g></g><g id="Group_5"><g id="Group_6"><path id="Vector_3" d="M12.3 4.233a.533.533 0 100-1.066.533.533 0 000 1.066z" fill="#fff"/></g></g></g></svg>