<svg width="18" height="18" fill="none" xmlns="http://www.w3.org/2000/svg"><g id="telegram (1) 1" clip-path="url(#clip0)" fill="#fff"><path id="Vector" d="M17.722 1.788a1.17 1.17 0 00-.927-.417c-.206 0-.424.043-.648.129L.912 7.316c-.809.309-.918.772-.91 1.02.006.25.141.705.966.968l.015.004 2.137.612 10.406-5.317a.527.527 0 01.624.83v.001l-5.786 6.148-.165.669 2.066 1.664 2.864 2.305a.15.15 0 00.007.006c.315.245.66.374.995.374.657 0 1.18-.486 1.332-1.238L17.96 3.035c.1-.495.016-.938-.237-1.247z"/><path id="Vector_2" d="M7.373 11.195a.525.525 0 01.127-.235l3.797-4.034-7.045 3.6 1.6 4.574c.09.26.226.483.394.657l1.126-4.562z"/><path id="Vector_3" d="M7.228 16.18c.38-.003.754-.163 1.081-.465l1.17-1.078-1.56-1.256-.69 2.8z"/></g><defs><clipPath id="clip0"><path fill="#fff" d="M0 0h18v18H0z"/></clipPath></defs></svg>