<svg width="22" height="22" fill="none" xmlns="http://www.w3.org/2000/svg"><g id="youtube 1"><g id="Group"><path id="Vector" d="M21.065 4.895c-.597-1.061-1.244-1.257-2.563-1.331-1.317-.09-4.63-.127-7.5-.127-2.874 0-6.188.038-7.504.126-1.316.075-1.965.27-2.567 1.332C.316 5.955 0 7.781 0 10.995v.012c0 3.2.316 5.04.93 6.09.603 1.061 1.25 1.254 2.567 1.343 1.317.077 4.63.122 7.506.122 2.87 0 6.182-.045 7.5-.12 1.319-.09 1.967-.282 2.563-1.344.62-1.049.934-2.889.934-6.09v-.011c0-3.216-.314-5.042-.935-6.102z" fill="#fff"/><path id="Vector_2" d="M8.25 15.125v-8.25L15.125 11 8.25 15.125z" fill="#121D2E"/></g></g></svg>